<svg id="visual" viewBox="0 0 900 600" width="900" height="600" xmlns="http://www.w3.org/2000/svg" xmlns:xlink="http://www.w3.org/1999/xlink" version="1.1"><path d="M494 600L531.5 590.8C569 581.7 644 563.3 674 545.2C704 527 689 509 693.5 490.8C698 472.7 722 454.3 707 436.2C692 418 638 400 621.5 381.8C605 363.7 626 345.3 633.5 327.2C641 309 635 291 632 272.8C629 254.7 629 236.3 612.5 218.2C596 200 563 182 540.5 163.8C518 145.7 506 127.3 516.5 109.2C527 91 560 73 599 54.8C638 36.7 683 18.3 705.5 9.2L728 0L900 0L900 9.2C900 18.3 900 36.7 900 54.8C900 73 900 91 900 109.2C900 127.3 900 145.7 900 163.8C900 182 900 200 900 218.2C900 236.3 900 254.7 900 272.8C900 291 900 309 900 327.2C900 345.3 900 363.7 900 381.8C900 400 900 418 900 436.2C900 454.3 900 472.7 900 490.8C900 509 900 527 900 545.2C900 563.3 900 581.7 900 590.8L900 600Z" fill="#eeeeee"></path><path d="M413 600L428 590.8C443 581.7 473 563.3 497 545.2C521 527 539 509 554 490.8C569 472.7 581 454.3 566 436.2C551 418 509 400 480.5 381.8C452 363.7 437 345.3 435.5 327.2C434 309 446 291 450.5 272.8C455 254.7 452 236.3 447.5 218.2C443 200 437 182 428 163.8C419 145.7 407 127.3 398 109.2C389 91 383 73 414.5 54.8C446 36.7 515 18.3 549.5 9.2L584 0L729 0L706.5 9.2C684 18.3 639 36.7 600 54.8C561 73 528 91 517.5 109.2C507 127.3 519 145.7 541.5 163.8C564 182 597 200 613.5 218.2C630 236.3 630 254.7 633 272.8C636 291 642 309 634.5 327.2C627 345.3 606 363.7 622.5 381.8C639 400 693 418 708 436.2C723 454.3 699 472.7 694.5 490.8C690 509 705 527 675 545.2C645 563.3 570 581.7 532.5 590.8L495 600Z" fill="#ffffff"></path><path d="M251 600L272 590.8C293 581.7 335 563.3 371 545.2C407 527 437 509 456.5 490.8C476 472.7 485 454.3 468.5 436.2C452 418 410 400 374 381.8C338 363.7 308 345.3 297.5 327.2C287 309 296 291 311 272.8C326 254.7 347 236.3 350 218.2C353 200 338 182 317 163.8C296 145.7 269 127.3 255.5 109.2C242 91 242 73 278 54.8C314 36.7 386 18.3 422 9.2L458 0L585 0L550.5 9.2C516 18.3 447 36.7 415.5 54.8C384 73 390 91 399 109.2C408 127.3 420 145.7 429 163.8C438 182 444 200 448.5 218.2C453 236.3 456 254.7 451.5 272.8C447 291 435 309 436.5 327.2C438 345.3 453 363.7 481.5 381.8C510 400 552 418 567 436.2C582 454.3 570 472.7 555 490.8C540 509 522 527 498 545.2C474 563.3 444 581.7 429 590.8L414 600Z" fill="#ffffff"></path><path d="M80 600L90.5 590.8C101 581.7 122 563.3 134 545.2C146 527 149 509 137 490.8C125 472.7 98 454.3 81.5 436.2C65 418 59 400 56 381.8C53 363.7 53 345.3 56 327.2C59 309 65 291 65 272.8C65 254.7 59 236.3 68 218.2C77 200 101 182 111.5 163.8C122 145.7 119 127.3 110 109.2C101 91 86 73 86 54.8C86 36.7 101 18.3 108.5 9.2L116 0L459 0L423 9.2C387 18.3 315 36.7 279 54.8C243 73 243 91 256.5 109.2C270 127.3 297 145.7 318 163.8C339 182 354 200 351 218.2C348 236.3 327 254.7 312 272.8C297 291 288 309 298.5 327.2C309 345.3 339 363.7 375 381.8C411 400 453 418 469.5 436.2C486 454.3 477 472.7 457.5 490.8C438 509 408 527 372 545.2C336 563.3 294 581.7 273 590.8L252 600Z" fill="#ffffff"></path><path d="M0 600L0 590.8C0 581.7 0 563.3 0 545.2C0 527 0 509 0 490.8C0 472.7 0 454.3 0 436.2C0 418 0 400 0 381.8C0 363.7 0 345.3 0 327.2C0 309 0 291 0 272.8C0 254.7 0 236.3 0 218.2C0 200 0 182 0 163.8C0 145.7 0 127.3 0 109.2C0 91 0 73 0 54.8C0 36.7 0 18.3 0 9.2L0 0L117 0L109.5 9.2C102 18.3 87 36.7 87 54.8C87 73 102 91 111 109.2C120 127.3 123 145.7 112.5 163.8C102 182 78 200 69 218.2C60 236.3 66 254.7 66 272.8C66 291 60 309 57 327.2C54 345.3 54 363.7 57 381.8C60 400 66 418 82.5 436.2C99 454.3 126 472.7 138 490.8C150 509 147 527 135 545.2C123 563.3 102 581.7 91.5 590.8L81 600Z" fill="#eeeeee"></path></svg>